<svg width="20" height="15" viewBox="0 0 20 15" fill="none" xmlns="http://www.w3.org/2000/svg">
<path d="M19.8005 5.16442L13.086 0.101135C12.9072 -0.0337118 12.6609 -0.0337118 12.482 0.101135L11.3782 0.933504L10.2745 0.101135C10.0956 -0.0337118 9.84928 -0.0337118 9.67044 0.101135L8.59417 0.912725L7.5179 0.101135C7.33906 -0.0337118 7.09273 -0.0337118 6.91389 0.101135L0.199476 5.16442C0.0738721 5.25921 0 5.40753 0 5.56488V14.0897C0 14.3667 0.224554 14.5912 0.501557 14.5912H3.25811H6.06955H13.9304H16.687H19.4984C19.7754 14.5912 20 14.3667 20 14.0897V5.56488C20 5.40753 19.9261 5.25921 19.8005 5.16442ZM18.9969 13.5881H17.1886V5.56488C17.1886 5.40746 17.1147 5.25921 16.989 5.16442L12.2113 1.56167L12.784 1.12976L18.9969 5.81487V13.5881ZM14.432 13.5881V5.56488C14.432 5.40746 14.3581 5.25921 14.2325 5.16442L9.42726 1.54096L9.97252 1.12983L16.1854 5.81494V13.5882H14.432V13.5881ZM8.03737 13.5881H6.57111H6.39456V9.95106H8.03737V13.5881ZM9.04049 13.5881V9.4495C9.04049 9.1725 8.81593 8.94795 8.53893 8.94795H5.893C5.616 8.94795 5.39145 9.1725 5.39145 9.4495V13.5881H3.75967H1.00311V5.8148L7.21597 1.12968L13.4289 5.8148V13.5881H9.04049Z" fill="#0061DF"/>
</svg>
