<svg width="15" height="15" viewBox="0 0 15 15" fill="none" xmlns="http://www.w3.org/2000/svg">
<path d="M13.7574 2.36524C12.1262 0.812973 9.47106 0.812973 7.83932 2.36489L7.50003 2.68715L7.16109 2.36503C5.52917 0.812914 2.87443 0.81309 1.24251 2.36503C0.44124 3.12716 0 4.13805 0 5.21119C0 6.28469 0.44124 7.2954 1.24263 8.05786L7.13771 13.6545C7.23911 13.751 7.36966 13.7991 7.5 13.7991C7.63034 13.7991 7.76071 13.7508 7.86229 13.6543L13.7574 8.05786C14.5586 7.29558 15 6.28472 15 5.21137C15 4.13805 14.5586 3.12734 13.7574 2.36524ZM13.0321 7.2947L7.5 12.547L1.96808 7.29488C1.37771 6.73349 1.05264 5.99348 1.05264 5.21137C1.05264 4.42926 1.37771 3.68925 1.96808 3.12787C2.58387 2.5419 3.39264 2.24911 4.20158 2.24911C5.0107 2.24911 5.81982 2.54225 6.43562 3.12822L7.13736 3.79472C7.34051 3.98787 7.65929 3.98787 7.86246 3.79472L8.56438 3.12787C9.79614 1.95611 11.8002 1.95611 13.0319 3.12787C13.6221 3.68928 13.9474 4.42926 13.9474 5.21137C13.9474 5.99348 13.6221 6.73331 13.0321 7.2947Z" fill="#696969"/>
</svg>
