<svg width="15" height="15" viewBox="0 0 15 15" fill="none" xmlns="http://www.w3.org/2000/svg">
<g clip-path="url(#clip0_1987_16558)">
<path d="M14.4141 0H10.0843C9.76071 0 9.49839 0.262324 9.49839 0.585938C9.49839 0.909551 9.76071 1.17188 10.0843 1.17188H12.9995L8.30255 5.86881C8.07371 6.09765 8.07371 6.46863 8.30255 6.69744C8.53136 6.92625 8.90234 6.92628 9.13118 6.69744L13.8281 2.00051V4.91563C13.8281 5.23925 14.0904 5.50157 14.4141 5.50157C14.7377 5.50157 15 5.23925 15 4.91563V0.585938C15 0.267041 14.7408 0 14.4141 0Z" fill="#696969"/>
<path d="M6.69744 8.30257C6.4686 8.07376 6.09762 8.07373 5.86881 8.30257L1.17188 12.9995V10.0844C1.17188 9.76076 0.909551 9.49844 0.585938 9.49844C0.262324 9.49844 0 9.76076 0 10.0844V14.4141C0 14.7324 0.259365 15 0.585938 15H4.91566C5.23928 15 5.5016 14.7377 5.5016 14.4141C5.5016 14.0905 5.23928 13.8281 4.91566 13.8281H2.00051L6.69744 9.1312C6.92628 8.90236 6.92628 8.53138 6.69744 8.30257Z" fill="#696969"/>
</g>
<defs>
<clipPath id="clip0_1987_16558">
<rect width="15" height="15" fill="white"/>
</clipPath>
</defs>
</svg>
